<?xml version="1.0" standalone="no"?>
<!DOCTYPE svg PUBLIC "-//W3C//DTD SVG 1.1//EN" "http://www.w3.org/Graphics/SVG/1.1/DTD/svg11.dtd" >
<svg xmlns="http://www.w3.org/2000/svg" xmlns:xlink="http://www.w3.org/1999/xlink" version="1.1">
<metadata></metadata>
<defs>
<font id="webfontregular" horiz-adv-x="0" >
<font-face units-per-em="1000" ascent="800" descent="-200" />
<missing-glyph horiz-adv-x="250" />
<glyph />
<glyph />
<glyph />
<glyph unicode="&#x9;" horiz-adv-x="250" />
<glyph unicode=" "  horiz-adv-x="250" />
<glyph unicode="&#x09;" horiz-adv-x="250" />
<glyph unicode="&#xa0;" horiz-adv-x="250" />
<glyph unicode="&#xd;" horiz-adv-x="250" />
<glyph unicode="&#x2000;" horiz-adv-x="400" />
<glyph unicode="&#x2001;" horiz-adv-x="800" />
<glyph unicode="&#x2002;" horiz-adv-x="400" />
<glyph unicode="&#x2003;" horiz-adv-x="800" />
<glyph unicode="&#x2004;" horiz-adv-x="266" />
<glyph unicode="&#x2005;" horiz-adv-x="200" />
<glyph unicode="&#x2006;" horiz-adv-x="133" />
<glyph unicode="&#x2007;" horiz-adv-x="133" />
<glyph unicode="&#x2008;" horiz-adv-x="100" />
<glyph unicode="&#x2009;" horiz-adv-x="160" />
<glyph unicode="&#x200a;" horiz-adv-x="44" />
<glyph unicode="&#x202f;" horiz-adv-x="160" />
<glyph unicode="&#x205f;" horiz-adv-x="200" />
<glyph horiz-adv-x="367" d="M23 147l7 30h70l14 103h-72l6 30h70l21 146h33l-21 -146h93l21 146h33l-21 -146h69l-6 -30h-67l-14 -103h69l-7 -30h-66l-21 -147h-33l21 147h-93l-21 -147h-33l21 147h-73zM133 177h93l14 103h-93z" />
<glyph horiz-adv-x="367" d="M-13 155h43q0 -57 24.5 -86t72.5 -37l41 196l-31 9q-43 13 -68 39.5t-25 69.5q0 71 55 105q46 30 123 30l7 34h30l-8 -37q60 -7 93.5 -41t33.5 -103h-45q0 51 -22.5 76t-67.5 30l-38 -181l13 -4q64 -18 87 -37q40 -30 40 -83q0 -52 -34 -89q-50 -54 -149 -54l-15 1 l-12 -57h-29l13 60q-64 7 -98 47t-34 112zM88 348q0 -34 25 -53q18 -14 55 -24l9 -3l37 175q-52 0 -86 -21q-40 -25 -40 -74zM156 29l10 -1q52 0 90 24q44 29 44 77q0 40 -33 63q-20 14 -71 27z" />
<glyph horiz-adv-x="550" d="M44 309q0 61 30 106q34 51 93 51q40 0 64 -25t24 -67q0 -62 -29 -106q-34 -52 -93 -52q-42 0 -65.5 25.5t-23.5 67.5zM69 -19l376 496h36l-377 -496h-35zM79 308q0 -26 14 -44t41 -18q42 0 66 44q20 38 20 82q0 30 -13 47t-42 17q-40 0 -65 -46q-21 -39 -21 -82zM294 83 q0 61 30 106q34 51 93 51q42 0 65.5 -25t23.5 -67q0 -61 -30 -106q-35 -50 -93 -50q-42 0 -65.5 24.5t-23.5 66.5zM329 82q0 -26 14 -44t40 -18q43 0 67 44q20 38 20 83q0 28 -12 45q-15 19 -44 19q-41 0 -65 -46q-20 -38 -20 -83z" />
<glyph horiz-adv-x="403" d="M11 111q0 55 44 94q26 23 95 56q-11 15 -18.5 27.5t-12.5 23.5q-14 31 -14 58q0 46 32 73.5t81 27.5q43 0 73.5 -22t30.5 -64q0 -45 -40 -82q-22 -22 -80 -54l84 -131q14 16 22.5 38.5t14.5 51.5h41q-9 -38 -21 -66t-35 -58l55 -84h-47l-36 55q-25 -30 -60.5 -46.5 t-75.5 -16.5q-60 0 -96.5 31t-36.5 88zM53 108q0 -35 25 -59t63 -24q71 0 120 61l-93 146q-53 -26 -76 -46q-39 -35 -39 -78zM147 369q0 -26 18 -60q7 -11 11.5 -19t6.5 -13q25 14 40 24t22 15q35 29 35 62q0 27 -17.5 42.5t-45.5 15.5q-29 0 -49.5 -18.5t-20.5 -48.5z" />
<glyph horiz-adv-x="183" d="M101 311v160h38v-160h-38z" />
<glyph horiz-adv-x="171" d="M32 124q0 103 46 195q41 84 115 162h34q-80 -96 -117 -190q-40 -98 -40 -224q0 -48 8 -92t24 -99h-28q-22 61 -32 121.5t-10 126.5z" />
<glyph horiz-adv-x="171" d="M-65 -124q76 95 114 188q41 106 41 224q0 48 -8 93.5t-25 99.5h29q22 -61 32 -122.5t10 -127.5q0 -103 -46 -195q-20 -40 -48 -80t-65 -80h-34z" />
<glyph horiz-adv-x="232" d="M48 407l13 23l68 -38l17 79h26l-17 -82l77 16l3 -25l-76 -16l40 -68l-25 -12l-39 70l-57 -61l-19 18l55 59z" />
<glyph horiz-adv-x="396" d="M32 148v35h149v149h35v-149h148v-35h-148v-148h-35v148h-149z" />
<glyph horiz-adv-x="183" d="M-6 -88l5 26q20 6 30 25q4 6 7 15.5t7 21.5h-28l16 70h55l-21 -90q-7 -31 -23 -45t-48 -23z" />
<glyph horiz-adv-x="244" d="M25 162l8 39h166l-8 -39h-166z" />
<glyph horiz-adv-x="183" d="M15 0l15 70h56l-15 -70h-56z" />
<glyph horiz-adv-x="220" d="M-50 -8l269 489h39l-269 -489h-39z" />
<glyph horiz-adv-x="367" d="M16 161q0 106 48 196q58 109 156 109q69 0 102 -48q28 -40 28 -114q0 -115 -46 -203q-58 -109 -161 -109q-69 0 -100 52q-27 45 -27 117zM58 148q0 -57 19 -85q24 -38 75 -38q76 0 121 108q36 87 36 176q0 56 -18 85q-22 37 -76 37q-74 0 -120 -109q-37 -84 -37 -174z " />
<glyph horiz-adv-x="367" d="M88 346l9 33q23 4 44 10t39 16q42 23 64 57h31l-99 -462h-41l81 383q-13 -7 -28 -12.5t-34 -10.5q-13 -4 -29.5 -7t-36.5 -7z" />
<glyph horiz-adv-x="367" d="M-5 0q0 66 49 115q15 15 42 33.5t67 40.5q79 43 103 64q48 42 48 95q0 42 -26.5 62.5t-68.5 20.5q-52 0 -83.5 -35.5t-31.5 -87.5h-41q0 69 45 113q46 45 115 45q57 0 94.5 -31t37.5 -88q0 -56 -40 -99q-29 -32 -93 -67q-87 -50 -102 -60q-53 -38 -69 -83h258l-7 -38 h-297z" />
<glyph horiz-adv-x="367" d="M6 147h42q0 -57 24.5 -89.5t76.5 -32.5q27 0 49.5 8.5t39.5 23.5t26.5 36t9.5 47q0 45 -29 65t-74 20h-23l8 35h27q53 0 81 16q38 23 38 74q0 38 -26 59.5t-63 21.5q-49 0 -78.5 -29.5t-37.5 -80.5h-42q13 70 51.5 107.5t107.5 37.5q56 0 90 -28q40 -31 40 -86 q0 -43 -26 -73.5t-71 -37.5q33 -10 50.5 -35.5t17.5 -62.5q0 -69 -50 -113q-47 -38 -113 -38q-76 0 -113 42q-33 40 -33 113z" />
<glyph horiz-adv-x="367" d="M0 115l7 39l283 308h37l-68 -312h70l-8 -35h-69l-25 -115h-42l26 115h-211zM48 150h170l52 239z" />
<glyph horiz-adv-x="367" d="M9 131h42q-1 -3 -1 -9v-5q0 -45 25.5 -68.5t73.5 -23.5q29 0 53 10.5t41 29.5t26.5 44t9.5 54q0 49 -25 78.5t-76 29.5q-35 0 -60.5 -12t-41.5 -41l-37 3l76 235h235l-9 -38h-202l-49 -148q39 36 103 36q60 0 94 -38t34 -98q0 -40 -12.5 -72.5t-36 -56t-56 -36.5 t-71.5 -13q-64 0 -100 36.5t-36 102.5z" />
<glyph horiz-adv-x="367" d="M24 146q0 38 6.5 79t20 80t34 72.5t49.5 55.5q43 33 98 33q61 0 94.5 -30.5t33.5 -90.5h-41q0 86 -89 86q-66 0 -108 -69q-26 -47 -47 -126q19 31 51.5 48t70.5 17q61 0 96.5 -39.5t35.5 -100.5q0 -38 -12 -69t-34.5 -53.5t-53.5 -34.5t-68 -12q-69 0 -103 41t-34 113z M65 134q0 -46 27.5 -77.5t73.5 -31.5q28 0 51 11t38.5 30.5t24 45t8.5 54.5q0 45 -29.5 72.5t-75.5 27.5q-52 0 -85 -40q-33 -39 -33 -92z" />
<glyph horiz-adv-x="367" d="M67 0q16 58 45 117q13 26 27.5 53t31.5 54q16 25 33.5 50t37.5 51q17 22 38 45t44 48h-251l9 38h295l-9 -36q-45 -45 -88.5 -101t-74.5 -110q-31 -52 -53.5 -104.5t-38.5 -104.5h-46z" />
<glyph horiz-adv-x="367" d="M12 121q0 54 34 89.5t88 40.5q-66 22 -66 94q0 55 41 88q40 33 98 33q61 0 95 -25q43 -30 43 -87q0 -43 -27.5 -73.5t-70.5 -36.5v-1q37 -11 56.5 -40.5t19.5 -69.5q0 -66 -51 -106q-47 -35 -114 -35q-62 0 -102 30q-44 35 -44 99zM53 121q0 -47 32 -73q29 -23 77 -23 q52 0 86 29.5t34 80.5q0 48 -31 70.5t-83 22.5q-49 0 -82 -29t-33 -78zM110 343q0 -39 26.5 -59.5t66.5 -20.5q45 0 72.5 23t27.5 66q0 40 -26 59.5t-68 19.5t-70.5 -24t-28.5 -64z" />
<glyph horiz-adv-x="367" d="M5 111h42q0 -86 89 -86q66 0 108 69q26 47 47 126q-19 -31 -52 -48t-71 -17q-30 0 -54 10.5t-41.5 29t-27 44.5t-9.5 56q0 38 12 69.5t34.5 54t53.5 35t69 12.5q67 0 102 -43t35 -113q0 -51 -11.5 -106t-34.5 -100q-27 -53 -64 -81q-43 -31 -99 -31q-60 0 -94 29.5 t-34 89.5zM78 290q0 -45 29.5 -72.5t75.5 -27.5q51 0 84 40t33 92q0 48 -26.5 78.5t-74.5 30.5q-29 0 -51 -11t-38 -30.5t-24 -45t-8 -54.5z" />
<glyph horiz-adv-x="183" d="M15 0l15 70h56l-15 -70h-56zM75 260l15 70h56l-16 -70h-55z" />
<glyph horiz-adv-x="183" d="M-6 -88l5 26q20 6 30 25q4 6 7 15.5t7 21.5h-28l16 70h55l-21 -90q-7 -31 -23 -45t-48 -23zM75 260l15 70h56l-16 -70h-55z" />
<glyph horiz-adv-x="396" d="M30 149v36l336 154v-36l-295 -136l295 -136v-34z" />
<glyph horiz-adv-x="396" d="M32 84v35h332v-35h-332zM32 214v35h332v-35h-332z" />
<glyph horiz-adv-x="396" d="M30 -3v34l295 136l-295 136v36l336 -154v-36z" />
<glyph horiz-adv-x="354" d="M57 325q0 72 43 114t115 42q54 0 91 -28.5t37 -82.5q0 -48 -32 -86q-11 -13 -29.5 -28t-43.5 -32q-16 -10 -27 -20.5t-18.5 -22.5t-12.5 -27t-10 -34h-41q7 54 30 83q13 18 67 56q16 11 29 22.5t23 22.5q24 28 24 60q0 39 -24.5 60.5t-64.5 21.5q-51 0 -82.5 -34.5 t-31.5 -86.5h-42zM97 0l15 70h56l-16 -70h-55z" />
<glyph horiz-adv-x="528" d="M31 238q0 103 70 173t172 70q99 0 160 -58q64 -57 64 -147q0 -78 -48 -135q-47 -57 -105 -57q-19 0 -31.5 11.5t-12.5 33.5q-19 -19 -40.5 -31.5t-45.5 -12.5q-40 0 -63.5 27t-23.5 69q0 73 44 132q45 59 113 59q47 0 70 -56l16 43h35l-63 -190q-7 -20 -7 -36 q0 -19 15 -19q42 0 77 53t35 111q0 79 -54 126q-56 47 -133 47q-93 0 -151 -63q-58 -61 -58 -155q0 -91 60 -152q61 -61 150 -61q51 0 96.5 23t73.5 65h34q-30 -54 -85.5 -85t-118.5 -31q-107 0 -176 69q-69 70 -69 177zM169 184q0 -30 15 -47t40 -17q43 0 76 53 q33 52 33 102q0 24 -16 43t-36 19q-47 0 -80 -51q-32 -50 -32 -102z" />
<glyph horiz-adv-x="416" d="M-47 0l286 471h49l86 -471h-47l-24 147h-215l-87 -147h-48zM110 185h186l-40 248z" />
<glyph horiz-adv-x="440" d="M3 0l103 471h182q60 0 95 -25t35 -82q0 -46 -28.5 -78.5t-74.5 -39.5q37 -5 59 -32.5t22 -65.5q0 -78 -57 -115q-50 -33 -132 -33h-204zM57 38h159q56 0 92 24q43 28 43 81q0 48 -34 67q-25 16 -77 16h-142zM106 265h149q46 0 81 23q37 25 37 71q0 38 -23.5 56t-61.5 18 h-145z" />
<glyph horiz-adv-x="465" d="M22 191q0 119 67 201q74 89 190 89q78 0 126.5 -40.5t48.5 -118.5h-45q0 58 -35.5 89.5t-95.5 31.5q-100 0 -159 -80q-52 -70 -52 -176q0 -73 40.5 -116t115.5 -43q57 0 100 35t60 98h45q-18 -77 -68 -121q-56 -48 -144 -48q-91 0 -142.5 53.5t-51.5 145.5z" />
<glyph horiz-adv-x="452" d="M3 0l103 471h151q97 0 141 -51q39 -47 39 -138q0 -116 -65 -196q-72 -86 -193 -86h-176zM57 38h113q111 0 170 77q52 67 52 176q0 142 -142 142h-107z" />
<glyph horiz-adv-x="379" d="M3 0l101 471h316l-9 -38h-270l-37 -170h253l-9 -39h-252l-39 -186h277l-9 -38h-322z" />
<glyph horiz-adv-x="354" d="M3 0l101 471h302l-8 -38h-257l-36 -170h228l-8 -39h-229l-48 -224h-45z" />
<glyph horiz-adv-x="489" d="M22 187q0 121 65 204q70 90 192 90q91 0 139 -40t48 -115h-45q0 58 -39.5 87.5t-106.5 29.5q-89 0 -149 -77q-59 -77 -59 -176q0 -75 39 -118.5t114 -43.5q37 0 69 12.5t56.5 35.5t40.5 54.5t22 70.5h-162l9 39h201l-49 -240h-31l8 79q-30 -46 -72.5 -66.5t-99.5 -20.5 q-91 0 -140.5 50.5t-49.5 144.5z" />
<glyph horiz-adv-x="465" d="M3 0l101 471h44l-43 -204h273l43 204h45l-100 -471h-45l49 228h-273l-49 -228h-45z" />
<glyph horiz-adv-x="147" d="M3 0l100 471h45l-100 -471h-45z" />
<glyph horiz-adv-x="330" d="M-11 98q0 27 6 53h43q-6 -29 -6 -58q0 -33 23 -49t59 -16q45 0 71 33q19 25 29 74l72 336h45l-75 -352q-13 -64 -46 -95q-37 -32 -100 -32q-57 0 -88 22q-33 27 -33 84z" />
<glyph horiz-adv-x="428" d="M3 0l101 471h44l-54 -251l2 -2l304 253h63l-242 -196l168 -275h-51l-150 247l-105 -84l-35 -163h-45z" />
<glyph horiz-adv-x="354" d="M3 0l102 471h45l-93 -433h260l-9 -38h-305z" />
<glyph horiz-adv-x="562" d="M1 0l103 471h65l73 -423l259 423h65l-101 -471h-44l97 426l-262 -426h-45l-76 433l-90 -433h-44z" />
<glyph horiz-adv-x="465" d="M0 0l102 471h50l189 -421l88 421h44l-103 -471h-50l-188 421l-89 -421h-43z" />
<glyph horiz-adv-x="489" d="M22 191q0 119 67 201q74 89 190 89q91 0 143 -53.5t52 -143.5q0 -123 -66 -205q-72 -87 -192 -87q-91 0 -142.5 53.5t-51.5 145.5zM67 187q0 -73 40.5 -116t115.5 -43q92 0 151 78q55 70 55 167q0 77 -36 121q-40 49 -115 49q-100 0 -159 -80q-52 -70 -52 -176z" />
<glyph horiz-adv-x="416" d="M3 0l102 471h190q55 0 90 -31t35 -85q0 -72 -44.5 -112.5t-117.5 -40.5h-166l-44 -202h-45zM100 240h159q51 0 84 28.5t33 79.5q0 45 -25 65t-71 20h-138z" />
<glyph horiz-adv-x="489" d="M22 191q0 119 67 201q74 89 190 89q91 0 143 -53.5t52 -143.5q0 -75 -27 -139t-79 -104l60 -54l-26 -27l-66 60q-55 -28 -120 -28q-91 0 -142.5 53.5t-51.5 145.5zM67 187q0 -73 40.5 -116t115.5 -43q43 0 82 21l-53 49l26 27l59 -55q43 33 67.5 88t24.5 115 q0 77 -36 121q-40 49 -115 49q-100 0 -159 -80q-52 -70 -52 -176z" />
<glyph horiz-adv-x="428" d="M3 0l101 471h200q124 0 124 -117q0 -27 -9 -50.5t-24.5 -41t-37.5 -27.5t-49 -10q31 -8 45.5 -30.5t14.5 -55.5q0 -16 -3 -49t-3 -49q0 -13 1.5 -23.5t6.5 -17.5h-47q-2 1 -4 16t-2 32q0 13 3 42q3 28 3 43q0 36 -15 56t-49 20h-167l-44 -209h-45zM101 247h159 q54 0 88.5 26t34.5 77q0 83 -81 83h-161z" />
<glyph horiz-adv-x="416" d="M7 155h44q0 -67 34.5 -97t101.5 -30q52 0 90 24q44 29 44 77q0 43 -38 66q-9 5 -28.5 12.5t-49.5 15.5l-47 14q-45 13 -67 38q-26 29 -26 71q0 67 52 103q47 32 115 32q76 0 120 -32q48 -38 48 -115h-45q0 60 -31 84.5t-94 24.5q-24 0 -46 -6t-38.5 -17.5t-26 -29.5 t-9.5 -42q0 -34 25 -53q16 -14 54 -24l51 -16q32 -10 53.5 -19.5t33.5 -17.5q39 -29 39 -83q0 -52 -33 -89q-48 -54 -149 -54q-82 0 -128 37q-49 42 -49 126z" />
<glyph horiz-adv-x="367" d="M46 433l7 38h369l-8 -38h-162l-94 -433h-45l94 433h-161z" />
<glyph horiz-adv-x="465" d="M32 125v17q0 5 4 22l63 307h45l-63 -299q-4 -15 -4 -41q0 -51 34 -77t94 -26q63 0 101.5 32t51.5 92l66 319h45l-67 -322q-17 -82 -67.5 -119.5t-135.5 -37.5q-71 0 -114 28q-53 36 -53 105z" />
<glyph horiz-adv-x="391" d="M42 471h46l60 -433l243 433h49l-272 -471h-52z" />
<glyph horiz-adv-x="599" d="M47 471h45l24 -419l202 419h54l33 -415l194 415h46l-227 -471h-48l-31 428l-208 -428h-49z" />
<glyph horiz-adv-x="379" d="M-43 0l215 246l-117 225h50l98 -198l171 198h53l-205 -233l123 -238h-47l-105 210l-185 -210h-51z" />
<glyph horiz-adv-x="379" d="M44 471h47l106 -239l198 239h54l-236 -281l-41 -190h-46l43 195z" />
<glyph horiz-adv-x="379" d="M-31 0l9 40l373 393h-286l8 38h340l-8 -37l-377 -396h315l-9 -38h-365z" />
<glyph horiz-adv-x="159" d="M-16 -124l126 605h108l-7 -35h-65l-116 -535h64l-6 -35h-104z" />
<glyph horiz-adv-x="220" d="M-36 481h37l271 -489h-39z" />
<glyph horiz-adv-x="159" d="M-47 -124l7 35h63l116 535h-64l6 35h106l-128 -605h-106z" />
<glyph horiz-adv-x="396" d="M29 157l152 299h34l152 -299h-38l-132 257l-130 -257h-38z" />
<glyph horiz-adv-x="330" d="M0 -47h330v-33h-330v33z" />
<glyph horiz-adv-x="122" d="M44 481h49l54 -95h-33z" />
<glyph horiz-adv-x="343" d="M-4 84q0 49 34 76q28 21 82 30q10 2 24 3t33 2q17 1 30 2t21 3q22 6 31.5 20t9.5 47q0 27 -21 37.5t-51 10.5q-45 0 -72.5 -17t-34.5 -59h-41q8 55 47 83t97 28q44 0 76 -15q42 -20 42 -60q0 -21 -7.5 -54t-13.5 -60q-2 -13 -5.5 -29t-8.5 -36q-9 -39 -9 -51 q0 -14 22 -14l17 1l-6 -32l-35 -2q-36 0 -36 35l1 18q-19 -29 -51 -44t-68 -15q-51 0 -79 22t-28 70zM36 86q0 -30 22 -45.5t54 -15.5q48 0 79.5 27t42.5 73l13 57q-10 -10 -36 -14q-1 0 -11 -1l-30 -3q-55 0 -86 -12q-48 -20 -48 -66z" />
<glyph horiz-adv-x="379" d="M-5 0l98 471h42l-41 -191q19 32 50 51t69 19q63 0 96.5 -39t33.5 -102q0 -87 -46 -148q-53 -69 -135 -69q-43 0 -74.5 22t-39.5 64l-18 -78h-35zM64 129q0 -48 22.5 -76t70.5 -28q67 0 107 61q37 52 37 124q0 49 -23.5 77t-74.5 28q-64 0 -104 -64q-35 -56 -35 -122z" />
<glyph horiz-adv-x="343" d="M9 131q0 86 48 149q52 70 137 70q58 0 92.5 -29t34.5 -87h-41q0 39 -22 60t-60 21q-70 0 -111 -59q-36 -53 -36 -125q0 -48 23.5 -77t71.5 -29q40 0 69 23t43 62h42q-37 -118 -159 -118q-63 0 -97.5 36.5t-34.5 102.5z" />
<glyph horiz-adv-x="379" d="M9 129q0 82 50 150q54 71 136 71q43 0 71.5 -17t39.5 -56l42 194h42l-101 -471h-40l15 61q-24 -35 -53 -52t-72 -17q-64 0 -97 35.5t-33 101.5zM51 127q0 -46 23 -74t69 -28q67 0 110 64q38 59 38 128q0 46 -25 72t-70 26q-66 0 -108 -63q-37 -55 -37 -125z" />
<glyph horiz-adv-x="343" d="M9 135q0 86 48 148q52 67 136 67q61 0 95.5 -35.5t34.5 -96.5v-35q-2 -8 -2.5 -14t-1.5 -10h-266q-1 -5 -1.5 -11.5t-0.5 -14.5q0 -48 25 -78t74 -30q42 0 70.5 23t40.5 62h42q-17 -57 -56 -87.5t-99 -30.5q-67 0 -103 38t-36 105zM58 194h222l1 26q0 45 -24 70t-69 25 q-49 0 -83.5 -35t-46.5 -86z" />
<glyph horiz-adv-x="171" d="M12 0l67 306h-59l8 35h58l11 49q9 40 29 60.5t62 20.5q11 0 21 -0.5t22 -3.5l-7 -35q-11 1 -16 3q-2 1 -10 1q-28 0 -41 -11t-19 -37l-10 -47h67l-8 -35h-66l-68 -306h-41z" />
<glyph horiz-adv-x="367" d="M-11 -24h39q0 -39 29 -59q25 -16 67 -16q68 0 101 63q5 11 13 37t19 68q-18 -29 -49.5 -45.5t-67.5 -16.5q-60 0 -93 39t-33 100q0 81 46 139q50 65 128 65q42 0 73.5 -20t38.5 -59l15 70h39l-65 -305q-19 -89 -55 -128q-39 -42 -116 -42q-58 0 -91 24q-38 29 -38 86z M55 149q0 -46 23 -76.5t69 -30.5q59 0 100 56q36 49 36 113q0 49 -22 76.5t-71 27.5q-61 0 -98 -52t-37 -114z" />
<glyph horiz-adv-x="354" d="M-5 0l99 471h42l-42 -192q19 31 51.5 51t69.5 20q48 0 75.5 -21.5t27.5 -69.5q0 -15 -1 -18q-1 -2 -1.5 -8t-2.5 -15l-47 -218h-42l48 220q5 20 5 34q0 31 -20.5 46t-51.5 15q-46 0 -83 -38t-50 -102l-38 -175h-39z" />
<glyph horiz-adv-x="122" d="M-5 0l71 341h42l-74 -341h-39zM80 405l14 66h42l-15 -66h-41z" />
<glyph horiz-adv-x="122" d="M-88 -121l8 35l23 -3q17 0 26.5 9.5t14.5 24.5l82 396h42l-86 -397q-8 -36 -25 -52t-56 -16zM80 405l14 66h42l-15 -66h-41z" />
<glyph horiz-adv-x="306" d="M-5 0l98 471h42l-64 -295l2 -2l199 167h55l-161 -132l103 -209h-45l-91 184l-72 -61l-27 -123h-39z" />
<glyph horiz-adv-x="122" d="M-5 0l99 471h42l-102 -471h-39z" />
<glyph horiz-adv-x="550" d="M-5 0l71 341h38l-13 -60q21 31 52.5 50t69.5 19q74 0 82 -72q22 32 53.5 52t67.5 20q48 0 71 -24.5t23 -64.5l-4 -39l-48 -222h-42l49 223l4 34q0 58 -65 58q-51 0 -82 -46q-26 -38 -42 -112l-34 -157h-41l47 222q4 12 4 33q0 26 -14 43t-43 17q-44 0 -80 -41 q-34 -40 -48 -101l-37 -173h-39z" />
<glyph horiz-adv-x="354" d="M-5 0l71 341h38l-12 -62q21 31 53.5 51t69.5 20q48 0 75.5 -21.5t27.5 -69.5q0 -15 -1 -18q-1 -2 -1.5 -8t-2.5 -15l-47 -218h-42l48 220q5 20 5 34q0 31 -20.5 46t-51.5 15q-46 0 -83 -38t-50 -102l-38 -175h-39z" />
<glyph horiz-adv-x="367" d="M9 132q0 90 49 151q52 67 141 67q60 0 97.5 -35t37.5 -98q0 -92 -47 -157q-53 -68 -142 -68q-66 0 -101 37t-35 103zM51 136q0 -51 25.5 -81t76.5 -30q63 0 104 62q35 56 35 122q0 51 -24.5 78.5t-75.5 27.5q-64 0 -105 -59q-36 -53 -36 -120z" />
<glyph horiz-adv-x="379" d="M-28 -124l98 465h38l-14 -62q24 35 53.5 53t72.5 18q64 0 96.5 -37.5t32.5 -101.5q0 -81 -50 -149q-55 -70 -136 -70q-43 0 -72.5 18t-36.5 58l-43 -192h-39zM67 123q0 -45 25 -71.5t70 -26.5q67 0 109 63q37 55 37 126q0 46 -23 73.5t-69 27.5q-67 0 -110 -64 q-39 -57 -39 -128z" />
<glyph horiz-adv-x="379" d="M15 132q0 87 46 148q51 70 134 70q42 0 74 -21t43 -56l15 68h39l-101 -465h-41l40 184q-20 -32 -51.5 -50t-68.5 -18q-63 0 -96 38t-33 102zM56 131q0 -51 23.5 -78.5t74.5 -27.5q64 0 104 64q35 56 35 123q0 48 -22 73q-26 30 -71 30q-65 0 -107 -61q-37 -52 -37 -123z " />
<glyph horiz-adv-x="208" d="M-5 0l71 341h38l-18 -79q23 42 50 60q32 23 75 23h23l-10 -42l-23 1q-53 0 -87 -39q-30 -33 -41 -87l-39 -178h-39z" />
<glyph horiz-adv-x="317" d="M0 111h41q0 -46 30 -68q24 -18 66 -18q16 0 31.5 4t27.5 12t19.5 20t7.5 27q0 34 -43 55q-7 4 -19.5 8.5t-29.5 11.5q-45 18 -62 32q-29 24 -29 62q0 45 42 71q34 22 84 22q57 0 89.5 -26t32.5 -83h-42q0 37 -21.5 55.5t-58.5 18.5q-31 0 -55 -11q-29 -15 -29 -47 q0 -21 21 -37q8 -5 20.5 -11.5t30.5 -13.5q71 -28 88 -45q23 -23 23 -56q0 -51 -44 -80q-37 -22 -94 -22q-53 0 -88 26q-39 33 -39 93z" />
<glyph horiz-adv-x="195" d="M20 306l8 35h62l22 103h41l-22 -103h68l-6 -35h-70l-46 -219q-2 -11 -3.5 -19t-1.5 -13q0 -24 22 -24q13 0 25.5 1t23.5 3l-8 -35l-42 -2q-36 0 -49.5 12.5t-13.5 34.5l5 35l47 226h-62z" />
<glyph horiz-adv-x="354" d="M13 82q0 7 1.5 16.5t3.5 23.5l47 219h42l-48 -220q-3 -15 -3 -17q-1 -3 -1 -18q0 -31 20 -46t51 -15q22 0 43.5 10t39.5 28.5t31 44.5t19 58l38 175h42l-74 -341h-38l12 62q-22 -32 -54 -51t-69 -19q-48 0 -75.5 21t-27.5 69z" />
<glyph horiz-adv-x="306" d="M23 341h44l40 -294l161 294h45l-192 -341h-44z" />
<glyph horiz-adv-x="489" d="M20 341h43l27 -291l142 291h49l23 -288l146 288h44l-179 -341h-44l-25 286l-141 -286h-46z" />
<glyph horiz-adv-x="306" d="M-36 0l160 180l-80 161h48l62 -134l117 134h50l-149 -165l90 -176h-48l-72 148l-131 -148h-47z" />
<glyph horiz-adv-x="306" d="M-34 -121l8 34l33 -2q18 0 31 10t23 27l31 52l-63 341h44l48 -290l159 290h45l-243 -420q-26 -45 -82 -45z" />
<glyph horiz-adv-x="281" d="M-36 0l7 34l261 272h-203l7 35h256l-7 -33l-265 -273h219l-7 -35h-268z" />
<glyph horiz-adv-x="220" d="M38 160l8 35q26 0 43 29.5t26 75.5l21 99q16 82 75 82h33l-7 -35h-15q-22 0 -31.5 -17t-16.5 -51l-19 -93q-7 -37 -26 -66t-44 -41q13 -11 20.5 -30t7.5 -40q0 -7 -1.5 -16t-3.5 -22l-18 -83l-8 -47q0 -29 26 -29h17l-8 -35h-26q-21 0 -36 15t-15 41l4 26l20 96 q7 32 7 56q0 23 -7.5 36.5t-25.5 13.5z" />
<glyph horiz-adv-x="147" d="M56 -8v489h35v-489h-35z" />
<glyph horiz-adv-x="220" d="M-38 -124l7 35h15q16 0 24 11q13 16 22 57l19 91q7 37 26 66t44 41q-13 11 -20.5 30t-7.5 40q0 7 1.5 16t3.5 22l18 85l8 47q0 29 -26 29h-17l7 35h27q21 0 36 -15t15 -41l-4 -26l-20 -98q-4 -17 -5.5 -31t-1.5 -24q0 -24 7.5 -37.5t25.5 -13.5l-8 -35q-27 0 -45 -32 q-7 -12 -13.5 -30t-11.5 -43l-20 -97q-16 -82 -73 -82h-33z" />
<glyph horiz-adv-x="396" d="M46 148q13 26 29 39q22 18 53 18q21 0 47 -9q6 -2 13.5 -5t15.5 -7q28 -13 35 -15q15 -7 30 -7q16 0 33 14q12 12 25 32l23 -24q-24 -35 -42 -46t-40 -11q-17 0 -35 6.5t-38 15.5q-24 12 -40.5 16.5t-29.5 4.5q-18 0 -35 -14q-5 -5 -10.5 -13t-10.5 -18z" />
<glyph horiz-adv-x="367" />
<glyph horiz-adv-x="396" d="M0 0l69 324q74 83 176 83q57 0 94.5 -27t37.5 -76q0 -14 -3 -29l-58 -275h-43l57 268q3 12 3 23q0 36 -27 55.5t-70 19.5q-79 0 -127 -54l-66 -312h-43z" />
<glyph horiz-adv-x="360" d="M13 118v19q0 7 4 20q11 49 45 92q30 37 76 70l-34 63l41 24l47 -90q-58 -39 -88 -74q-33 -38 -44 -85q-3 -17 -3 -31q0 -42 23 -67t65 -25q22 0 42 7.5t36 21t27 31.5t15 39l57 267h43l-57 -267q-6 -30 -21.5 -55.5t-38.5 -44t-51.5 -28.5t-59.5 -10q-57 0 -90.5 33 t-33.5 90z" />
<glyph horiz-adv-x="365" d="M22 114q0 25 4 40q10 49 44 89q31 35 81 64l8 37l-42 -32q-4 7 -7.5 12.5t-7.5 9.5q-10 12 -22.5 22t-26.5 18l32 31q9 -5 17 -10.5t15 -11.5q3 -2 7 -6.5t9 -10.5l41 34h39l-24 -111q-45 -19 -79 -54.5t-43 -80.5q-4 -13 -4 -32q0 -40 23 -64t66 -24q21 0 40.5 7.5 t35.5 21t27 32t15 39.5l57 266h43l-57 -266q-13 -61 -61 -101q-47 -38 -108 -38q-57 0 -89.5 32t-32.5 87z" />
<glyph horiz-adv-x="396" d="M0 0l58 273q13 58 67 96q56 38 120 38q28 0 52 -8t42 -22t28 -34.5t10 -44.5q0 -12 -3 -25l-58 -273h-43l58 273q1 6 1.5 10.5t0.5 6.5q0 34 -28 54t-70 20q-48 0 -86 -25t-48 -66l-10 -49h123l-9 -42h-123l-39 -182h-43z" />
<glyph horiz-adv-x="416" d="M0 0l59 279q12 52 51 90q41 38 94 38l38 -59l64 59q45 0 69 -27t24 -69q0 -7 -1.5 -17t-2.5 -15l-59 -279h-43l59 279q3 12 3 24q0 55 -44 63l-82 -79l-48 79q-27 -4 -49.5 -29.5t-29.5 -57.5l-11 -55h133l-9 -42h-133l-39 -182h-43z" />
<glyph horiz-adv-x="375" d="M47 391l46 10l12 -362q79 0 134 41.5t72 119.5q2 14 3.5 25t1.5 20q0 55 -32 84t-98 29h-15q-8 0 -11 -1l9 43q192 0 192 -141q0 -18 -1 -28t-6 -31q-20 -96 -88 -148t-167 -52h-18h-12h-7z" />
<glyph horiz-adv-x="382" d="M33 333q86 74 188 74q70 0 108.5 -39.5t38.5 -105.5q0 -26 -6 -54q-19 -93 -96 -152q-77 -57 -180 -57l-3 206h-40l9 42h76l1 -208q68 0 121 48q54 49 69 121l3.5 24.5t1.5 17.5q0 51 -30.5 82.5t-84.5 31.5q-75 0 -148 -60z" />
<glyph horiz-adv-x="385" d="M11 189l9 43h71l-24 -113q-3 -14 -3 -25q0 -64 78 -64q47 0 94 32q46 33 55 76l29 135q1 6 1.5 10.5t0.5 7.5q0 34 -27 54.5t-69 20.5t-82 -21q-41 -21 -57 -55h-44q22 53 78 85t114 32q57 0 94 -30t37 -79q0 -12 -3 -25l-52 -246l7 -27h-56l11 54q-13 -11 -28 -21.5 t-32 -18.5q-44 -19 -86 -19q-107 0 -107 87v15q0 6 4 18l16 74h-29z" />
<glyph horiz-adv-x="364" d="M3 16l82 384h43l-75 -353q12 -5 34 -8.5t41 -3.5q64 0 107 32.5t55 89.5q1 8 2.5 15.5t1.5 15.5q0 43 -29.5 71.5t-84.5 40.5l133 105l27 -26l-83 -64q40 -20 60.5 -48t20.5 -70q0 -8 -1.5 -17.5t-3.5 -22.5q-7 -36 -25.5 -66t-46.5 -51t-64 -32.5t-78 -11.5 q-52 0 -98 13q-4 1 -8.5 3t-9.5 4z" />
<glyph horiz-adv-x="374" d="M14 16l48 224q5 25 48 59q20 17 23 30l4 17l-47 -30q-2 5 -6 11q-18 28 -44 48l34 30q24 -21 32 -36l46 31h39l-16 -75q-3 -13 -46 -53q-21 -21 -25 -39l-40 -187q16 -5 37 -8t38 -3q64 0 107 32.5t54 89.5q4 12 4 32q0 43 -29.5 71t-84.5 40l134 105l26 -26l-81 -64 q39 -20 59 -48t20 -70q0 -8 -1.5 -17.5t-3.5 -22.5q-15 -72 -70 -116.5t-143 -44.5q-52 0 -98 13q-4 1 -8.5 3t-9.5 4z" />
<glyph horiz-adv-x="655" d="M0 0l69 324q74 83 176 83q57 0 94.5 -27t37.5 -76q0 -14 -3 -29l-28 -136q-1 -6 -1.5 -10.5t-0.5 -6.5q0 -18 8 -35t21.5 -29.5t31.5 -20t38 -7.5q42 0 74 25t42 70l58 275h43l-59 -279q-12 -60 -56 -93t-101 -33q-39 0 -71 16.5t-46 42.5l-11 -54h-43l57 268q3 12 3 23 q0 36 -27 55.5t-70 19.5q-79 0 -127 -54l-58 -274h70l-8 -38h-113z" />
<glyph horiz-adv-x="401" d="M-68 -148l9 42h137l113 73l66 -63l78 364q3 12 3 23q0 36 -27 55.5t-70 19.5q-79 0 -127 -54l-66 -312h-84l8 38h41l61 286q74 83 176 83q57 0 94.5 -27t37.5 -76q0 -14 -3 -29l-90 -423h-39l-71 65l-101 -65h-146z" />
<glyph horiz-adv-x="401" d="M-68 -148l9 42h85l84 67l40 -61l67 61l42 -49l76 356q3 12 3 23q0 36 -27 55.5t-70 19.5q-79 0 -127 -54l-66 -312h-84l8 38h41l61 286q74 83 176 83q57 0 94.5 -27t37.5 -76q0 -14 -3 -29l-90 -423h-40l-43 55l-68 -64l-40 64l-68 -55h-98z" />
<glyph horiz-adv-x="382" d="M-64 -144l9 42h83l83 67l39 -61l66 61l42 -49l8 39l-13 33h63l-28 -132h-39l-44 55l-67 -64l-39 64l-68 -55h-95zM32 331q86 74 188 74q53 0 86 -21l48 46l27 -25l-46 -45q33 -38 33 -100q0 -26 -6 -54q-19 -91 -97 -151q-77 -57 -179 -57l-4 210h-39l8 38h76l2 -209 q68 0 121 48q54 49 69 121q4 15 4 41q0 52 -30 83.5t-84 31.5q-42 0 -77 -14.5t-72 -44.5z" />
<glyph horiz-adv-x="401" d="M7 0l52 243q4 22 27 39q50 37 52 47l4 17l-47 -30q-2 5 -6 11q-18 28 -44 48l35 30q11 -11 19.5 -20.5t11.5 -15.5l47 31h38l-17 -78q-4 -18 -25 -32q-49 -34 -54 -53l-30 -145l226 310q43 0 66.5 -22.5t23.5 -61.5q0 -14 -3 -27l-62 -291h-43l62 292q1 4 1.5 8.5 t0.5 10.5q0 19 -9 33.5t-24 15.5l-262 -360h-40z" />
<glyph horiz-adv-x="401" d="M16 120q0 23 8 69q20 90 86 153q68 65 146 65q57 0 91 -31t34 -79q0 -7 -1.5 -17t-2.5 -15l-56 -265h-43l56 264q1 4 1.5 9t0.5 13q0 35 -23.5 57t-65.5 22q-63 0 -115 -54q-49 -49 -65 -122q-3 -11 -5 -29t-2 -29q0 -43 18 -68.5t56 -25.5q34 0 64 32l28 -24 q-20 -22 -45.5 -35t-55.5 -13q-54 0 -81.5 32.5t-27.5 90.5z" />
<glyph horiz-adv-x="418" d="M16 120q0 34 9 73q18 82 73 143q56 62 113 71l40 -60l61 57q43 0 66 -25t23 -67v-17q-2 -6 -2.5 -10.5t-1.5 -7.5l-59 -277h-43l59 277q1 5 1.5 11t0.5 13q0 24 -9.5 41t-28.5 21l-80 -77l-50 76q-32 -15 -66 -58q-41 -53 -54 -111q-3 -12 -5 -30.5t-2 -30.5 q0 -45 18 -70t56 -25q14 0 28 6q20 9 36 28l30 -26q-43 -48 -103 -48q-55 0 -82.5 31.5t-27.5 91.5z" />
<glyph horiz-adv-x="396" d="M0 0l69 324q74 83 176 83q57 0 94.5 -27t37.5 -76q0 -14 -3 -29l-58 -275h-43l57 268q3 12 3 23q0 36 -27 55.5t-70 19.5q-79 0 -127 -54l-58 -274h68l-8 -38h-111z" />
<glyph horiz-adv-x="396" d="M0 0l85 400h43l-11 -54q25 26 65 43.5t83 17.5q52 0 82.5 -25.5t30.5 -73.5v-20q-2 -5 -2.5 -8.5t-1.5 -5.5l-58 -274h-43l57 270q3 15 3 28q0 36 -23 54t-61 18q-50 0 -96 -34t-55 -75l-55 -261h-43z" />
<glyph horiz-adv-x="363" d="M0 15l40 195l45 14l-38 -175q19 -7 40.5 -10t43.5 -3q51 0 94 20q47 24 56 68q1 6 1.5 10.5t0.5 7.5q0 33 -27.5 51.5t-69.5 24.5q-62 12 -72 15q-63 18 -63 59q0 12 1 14q9 43 60 71q53 29 109 29q60 0 98 -26q43 -30 43 -90h-46q-6 36 -36 54.5t-72 18.5 q-19 0 -37.5 -4.5t-33.5 -11.5t-25 -17t-13 -20q-6 -28 47 -40q4 -1 19 -3.5t41 -7.5q53 -9 83 -30q39 -29 39 -75q0 -14 -3 -30q-13 -63 -73 -98q-56 -30 -130 -30q-54 0 -103 12q-10 1 -19 7z" />
<glyph horiz-adv-x="396" d="M24 102q0 11 3 25l58 273h43l-58 -273q-1 -6 -1.5 -10.5t-0.5 -7.5q0 -34 27.5 -54.5t69.5 -20.5q23 0 45.5 7t41 19t31.5 29t17 38l58 273h43l-58 -273q-12 -59 -67 -96q-53 -36 -119 -36q-58 0 -95.5 28t-37.5 79z" />
<glyph horiz-adv-x="396" d="M24 102q0 11 3 25l58 273h43l-58 -273q-1 -6 -1.5 -10.5t-0.5 -7.5q0 -34 27.5 -54.5t69.5 -20.5q23 0 45.5 7t41 19t31.5 29t17 38l84 393h43l-84 -393q-12 -59 -67 -96q-53 -36 -119 -36q-58 0 -95.5 28t-37.5 79z" />
<glyph horiz-adv-x="498" d="M49 400h43l16 -318l167 318h37l33 -318l207 438h43l-245 -520h-37l-36 324l-171 -324h-36z" />
<glyph horiz-adv-x="401" d="M-36 0l8 38h41l61 286q74 83 176 83q57 0 94.5 -27t37.5 -76q0 -14 -3 -29l-58 -275h-43l57 268q3 12 3 23q0 36 -27 55.5t-70 19.5q-79 0 -127 -54l-66 -312h-84z" />
<glyph horiz-adv-x="396" d="M0 0l85 400h43l-55 -261q-1 -6 -1.5 -10.5t-0.5 -6.5q0 -18 8 -35t22.5 -29.5t33.5 -20t41 -7.5q45 0 79.5 25.5t45.5 74.5l57 270h43l-58 -274q-13 -63 -58 -97t-108 -34q-42 0 -75.5 16.5t-47.5 42.5l-11 -54h-43z" />
<glyph horiz-adv-x="395" d="M8 99q0 13 3 27q7 37 36 67q12 13 26 23t30 18q-20 7 -32.5 23t-12.5 38q0 2 0.5 6.5t1.5 10.5q10 39 48 66t88 27q30 0 53 -9l-9 -43q-24 9 -52 9q-32 0 -55.5 -12.5t-28.5 -37.5q-6 -26 19 -41q19 -12 54 -12h43l-9 -43h-34q-38 0 -75 -25t-46 -64q-1 -6 -1.5 -10.5 t-0.5 -6.5q0 -35 30 -55t82 -20q33 0 65 10t57 29l69 326h43l-73 -342q-24 -23 -43 -32q-56 -30 -126 -30q-73 0 -111.5 27.5t-38.5 75.5z" />
<glyph horiz-adv-x="369" d="M8 100q0 5 1 13t3 18h43q-1 -5 -1.5 -10.5t-0.5 -11.5q0 -36 28.5 -55.5t70.5 -19.5q48 0 85 22q43 25 52 69q1 2 1 13q0 29 -31 45q-23 10 -78 18q-28 4 -48.5 9t-34.5 10q-44 20 -44 57q0 2 0.5 6t1.5 9q10 48 60 80q49 33 109 33q61 0 99.5 -28.5t38.5 -86.5h-44 q-4 37 -32.5 55.5t-70.5 18.5q-36 0 -74 -20q-35 -20 -41 -48q-6 -27 31 -40q17 -6 76 -15q59 -8 88 -26q38 -23 38 -67q0 -7 -0.5 -12.5t-1.5 -10.5q-13 -61 -71 -99q-53 -32 -118 -32q-58 0 -96.5 27t-38.5 79z" />
<glyph horiz-adv-x="396" d="M0 0l69 323q73 84 176 84q58 0 95 -27t37 -78q0 -14 -3 -29l-90 -421h-43l89 415q3 12 3 23q0 37 -27 56.5t-70 19.5q-79 0 -127 -55l-58 -273h68l-8 -38h-111z" />
<glyph horiz-adv-x="405" d="M7 92q0 14 3 29q13 63 67 107q58 48 135 48q43 0 71 -12t48 -34l9 43q1 6 1.5 10.5t0.5 6.5q0 34 -29 55t-71 21q-39 0 -76.5 -21t-57.5 -55h-45q26 53 80 85q56 32 111 32q58 0 95 -29t37 -80q0 -12 -3 -25l-58 -273h-43l34 162q-8 31 -39 51.5t-74 20.5 q-58 0 -99 -32.5t-51 -80.5q-1 -7 -1.5 -12t-0.5 -8q0 -27 15 -45t41 -18q20 0 29.5 3t25.5 13l19 -34q-24 -15 -41.5 -19t-41.5 -4q-43 0 -67 26t-24 69z" />
<glyph horiz-adv-x="401" d="M-36 0l8 38h41l61 286q74 83 176 83q57 0 94.5 -27t37.5 -76q0 -14 -3 -29l-90 -423h-43l89 416q3 12 3 23q0 36 -27 55.5t-70 19.5q-79 0 -127 -54l-66 -312h-84z" />
<glyph horiz-adv-x="367" d="M6 114h44q7 -37 31.5 -58t60.5 -21q61 0 106 51q40 43 55 114q4 25 4.5 34.5t0.5 15.5q0 53 -22 81q-25 34 -73 34q-35 0 -69.5 -21.5t-55.5 -57.5h-45q25 54 76 88q51 33 103 33q64 0 97 -40.5t33 -106.5q0 -30 -6 -60q-20 -89 -74 -145q-59 -60 -138 -60q-26 0 -49 8 t-40.5 23.5t-28 37.5t-10.5 50z" />
<glyph horiz-adv-x="396" d="M0 0l58 271q12 59 67 96q56 38 119 38q39 0 69 -15l42 40l30 -25l-39 -36q30 -30 30 -74q0 -7 -0.5 -13t-1.5 -11l-58 -271h-43l58 274q1 6 1.5 10.5t0.5 7.5q0 34 -27.5 54t-69.5 20q-48 0 -86.5 -25t-48.5 -67l-11 -51h123l-9 -42h-123l-38 -181h-43z" />
<glyph horiz-adv-x="401" d="M24 102q0 11 3 25l58 273h43l-58 -275q-1 -4 -1.5 -8.5t-0.5 -10.5q0 -34 26.5 -53t71.5 -19q48 0 86.5 24.5t48.5 66.5l13 65h-113l14 63l28 -20h81l35 167h44l-35 -167h39l-10 -43h-39l-13 -63q-12 -58 -68 -96q-56 -36 -119 -36q-58 0 -96 29t-38 78z" />
<glyph horiz-adv-x="405" d="M7 92q0 13 3 28q14 62 66 107q57 48 135 48q43 0 72 -12t48 -34l9 44q1 6 1.5 10.5t0.5 6.5q0 35 -28.5 55.5t-71.5 20.5q-42 0 -78 -20t-56 -55h-45q25 52 79 84q56 32 112 32q38 0 68 -15l44 40l29 -25l-39 -36q30 -30 30 -72q0 -13 -3 -26l-58 -273h-43l34 161 q-8 31 -39 51.5t-74 20.5q-59 0 -99.5 -32.5t-50.5 -80.5q-1 -6 -1.5 -10.5t-0.5 -8.5q0 -28 14.5 -46t41.5 -18q26 0 55 17l19 -34q-41 -23 -83 -23q-43 0 -67 26t-24 69z" />
<glyph horiz-adv-x="401" d="M0 0l85 400h43l-30 -142l267 147l31 -25l-112 -64q40 -8 63.5 -32t23.5 -61q0 -13 -3 -26l-42 -197h-43l42 196q1 6 1.5 10t0.5 6q0 32 -26.5 51.5t-66.5 19.5q-12 0 -14 -1l-132 -72l-45 -210h-43z" />
<glyph horiz-adv-x="498" d="M49 400h43l15 -318l168 318h36l34 -318l100 211q8 19 8 32q0 17 -13 27t-33 10h-42l8 38h46q37 0 50 4q32 8 48 40l27 56h45l-32 -66q-14 -27 -32 -41t-41 -21q14 -17 14 -37q0 -19 -12 -44l-137 -291h-37l-35 324l-171 -324h-36z" />
<glyph horiz-adv-x="432" d="M21 146q0 25 6 54q2 11 6 22.5t6 18.5h139l-9 -42h-100q-4 -15 -4 -41q0 -55 31 -88.5t88 -33.5q68 0 117 46q51 46 67 118q2 10 3 21t1 22q0 55 -30.5 88.5t-87.5 33.5q-48 0 -88.5 -24.5t-68.5 -69.5h-44q34 64 89 100t121 36q72 0 113 -42t41 -112q0 -26 -6 -53 q-20 -90 -85 -149q-65 -56 -151 -56q-72 0 -113 41t-41 110z" />
<glyph horiz-adv-x="432" d="M21 146q0 25 6 54q2 11 6 22.5t6 18.5h139l-9 -42h-100q-4 -15 -4 -41q0 -55 31 -88.5t88 -33.5q68 0 117 46q51 46 67 118q2 10 3 21t1 22q0 55 -30.5 88.5t-87.5 33.5q-48 0 -88.5 -24.5t-68.5 -69.5h-44q34 64 89 100t121 36q41 0 78 -17l42 40l28 -23l-41 -38 q47 -41 47 -117q0 -25 -6 -52q-20 -90 -85 -149q-65 -56 -151 -56q-72 0 -113 41t-41 110z" />
<glyph horiz-adv-x="392" d="M49 298q0 3 0.5 7t1.5 9q4 19 16.5 36t30.5 29t40.5 19t46.5 7q11 0 17.5 -0.5t12 -1t11 -2.5t13.5 -5l-9 -43q-13 4 -26 7t-27 3q-30 0 -54 -12.5t-29 -36.5q-6 -25 17 -39.5t60 -14.5q61 0 113 28q34 19 55 43l15 69h43l-85 -400h-43l58 273q-26 -21 -60 -34 q-47 -19 -105 -19q-54 0 -83.5 22t-29.5 56z" />
<glyph d="M-129 450l17 80h42l-9 -40h231l-8 -40h-273z" />
<glyph horiz-adv-x="276" d="M46 339l10 45q8 4 17 7.5t18 6.5q30 9 53 9q57 0 85.5 -28t28.5 -74q0 -8 -1.5 -17.5t-3.5 -22.5l-56 -265h-42l55 258q2 7 3 17t1 18q0 36 -19 55.5t-61 19.5q-20 0 -44.5 -8.5t-43.5 -20.5z" />
<glyph horiz-adv-x="276" d="M-44 496q5 20 22.5 34.5t35.5 14.5q17 0 28 -11t11 -28q0 -9 -1 -10q-4 -20 -21 -34t-36 -14t-31 14t-8 34zM-16 496q-1 -6 2.5 -13.5t13.5 -7.5q19 0 24 21q2 9 -2.5 15t-13.5 6q-8 0 -15 -6t-9 -15zM46 339l10 45q8 4 17 7.5t18 6.5q30 9 53 9q57 0 85.5 -28t28.5 -74 q0 -8 -1.5 -17.5t-3.5 -22.5l-56 -265h-42l55 258q2 7 3 17t1 18q0 36 -19 55.5t-61 19.5q-20 0 -44.5 -8.5t-43.5 -20.5z" />
<glyph d="M-292 450l8 40h308l-8 -40h-308z" />
<glyph d="M-292 450l8 40h267l11 50h41l-19 -90h-308z" />
<glyph d="M-292 450l8 40h241l1 7q4 20 21 34t35 14q20 0 31 -14t7 -34q-5 -20 -21.5 -33.5t-34.5 -13.5h-288zM-13 499q-5 -18 13 -18q4 0 9 3q10 6 12 15q4 18 -14 18q-5 0 -11.5 -4.5t-8.5 -13.5z" />
<glyph d="M-178 -78l8 40h83l-24 -115h-43l16 75h-40z" />
<glyph d="M-281 -78l8 40h74l-15 -71q4 -6 14 -9.5t18 -3.5q15 0 26.5 7.5t14.5 21.5l11 55h43l-11 -54q-6 -29 -33.5 -47.5t-60.5 -18.5q-20 0 -39.5 9.5t-28.5 25.5l10 45h-31z" />
<glyph d="M-147 -70q8 32 38 32q13 0 21 -9t5 -23t-14 -23t-25 -9t-21 9t-4 23z" />
<glyph />
<glyph />
<glyph horiz-adv-x="440" d="M3 0l103 471h156l13 62h25l-13 -62q57 0 92 -24q39 -29 39 -83q0 -46 -28.5 -78.5t-74.5 -39.5q37 -5 59 -32.5t22 -65.5q0 -78 -57 -115q-50 -33 -132 -33h-20l-14 -64h-25l14 64h-159zM57 38h113l40 188h-112zM106 265h112l36 168h-111zM195 38h21q56 0 92 24 q43 28 43 81q0 48 -34 67q-25 16 -77 16h-5zM243 265h12q46 0 81 23q37 25 37 71q0 38 -23.5 56t-61.5 18h-9z" />
<glyph horiz-adv-x="142" d="M10 0l85 400h42l-85 -400h-42z" />
<glyph horiz-adv-x="247" d="M10 0l85 400h42l-85 -400h-42zM115 0l85 400h42l-85 -400h-42z" />
<glyph horiz-adv-x="162" d="M20 0l98 459q1 2 1 13q0 21 -28 43t-23 46q6 28 31 43.5t58 15.5h124l-9 -41h-130q-29 0 -33 -18q-3 -13 13 -25q39 -30 39 -58q0 -5 -0.5 -10t-1.5 -10l-97 -458h-42z" />
<glyph horiz-adv-x="162" d="M20 0l96 450q6 28 45 61q19 16 22 31q4 19 -7.5 32t-35.5 13q-26 0 -45.5 -15.5t-24.5 -40.5h-41q4 20 15.5 37t27.5 30t35.5 20t40.5 7q36 0 58 -19t22 -48q0 -2 -0.5 -5.5t-1.5 -8.5q-5 -23 -45 -59q-20 -18 -24 -40l-95 -445h-42z" />
<glyph horiz-adv-x="162" d="M20 0l96 451q7 32 29 57q11 14 37 34l-16 21l-59 -46l-73 77l32 28l53 -56l64 48l47 -67q-23 -16 -43 -39q-22 -25 -28 -51l-97 -457h-42z" />
<glyph horiz-adv-x="276" d="M46 339l10 45q8 4 17 7.5t18 6.5q30 9 53 9q57 0 85.5 -28t28.5 -74q0 -8 -1.5 -17.5t-3.5 -22.5l-88 -413h-42l87 406q2 7 3 17t1 18q0 36 -19 55.5t-61 19.5q-20 0 -44.5 -8.5t-43.5 -20.5z" />
<glyph horiz-adv-x="395" d="M31 223l14 63q11 54 49.5 86.5t92.5 32.5l38 -51l60 51q45 0 69.5 -23t24.5 -65q0 -15 -3 -31l-93 -434h-43l93 434q1 5 1.5 10.5t0.5 11.5q0 46 -42 57l-80 -69l-51 69q-61 -12 -74 -79l-5 -21h81l-9 -42h-124z" />
<glyph d="M-259 450l7 33q7 37 37 61.5t81 24.5h184l-8 -37h-187q-27 0 -44 -12t-21 -33l38 1l64 34l47 -34h61l-6 -38h-70l-41 31l-55 -31h-87z" />
<glyph d="M0 570l13 70h43l-15 -70h-41z" />
<glyph d="M-62 606l7 36h20q35 0 35 -26v-8l115 -2l-8 -36h-150l5 21q3 15 -10 15h-14z" />
<glyph d="M-94 570l8 36q5 26 26.5 41t49.5 15h4l32 -29l44 29h7q52 0 52 -44q0 -10 -1 -12h59l-8 -36h-95l7 30q5 26 -20 26l-54 -34l-37 34q-27 0 -32 -26l36 1l-7 -31h-71z" />
<glyph d="M-32 613l7 30h43l9 43h36l-9 -43h45l-7 -30h-45l-9 -43h-36l9 43h-43z" />
<glyph d="M-34 530l4 21q5 24 21 35.5t37 11.5h46l-7 -34h-33q-23 0 -28 -17l-3 -17h-37z" />
<glyph d="M-44 496q5 20 22.5 34.5t35.5 14.5q17 0 28 -11t11 -28q0 -9 -1 -10q-4 -20 -21 -34t-36 -14t-31 14t-8 34zM-16 496q-1 -6 2.5 -13.5t13.5 -7.5q19 0 24 21q2 9 -2.5 15t-13.5 6q-8 0 -15 -6t-9 -15z" />
<glyph horiz-adv-x="396" d="M18 41l150 125l-97 124l29 25l98 -125l152 125l19 -25l-152 -124l99 -125l-30 -25l-98 125l-152 -125z" />
<glyph horiz-adv-x="480" d="M33 156v16q1 3 2 10t3 18q18 85 90 145t158 60q74 0 120 -46q47 -45 47 -117q0 -14 -5 -42q-20 -86 -92 -145q-73 -58 -157 -58q-73 0 -120 44q-46 45 -46 115zM64 163q0 -30 10.5 -55t29 -43.5t44.5 -29t57 -10.5q73 0 135 51t78 124q4 13 4 36q0 30 -10.5 55.5t-29 44 t-45 29t-57.5 10.5q-74 0 -135 -52q-62 -53 -77 -123q-4 -13 -4 -37zM115 174q0 12 3 26q10 51 55 88q43 37 96 37q46 0 74 -27.5t28 -72.5q0 -13 -3 -25q-11 -53 -56 -89q-44 -36 -96 -36q-45 0 -73 28t-28 71z" />
<glyph horiz-adv-x="391" d="M15 133q0 13 3 27q14 65 73 105q59 41 126 41q64 0 105.5 -32t41.5 -89q0 -7 -1.5 -17t-2.5 -15q-16 -76 -92 -132q-67 -49 -146 -60l-10 34q69 6 130 51q64 47 77 107q2 10 2 12v11q0 42 -31 67t-80 25q-52 0 -97 -30q-44 -30 -54 -78q-1 -6 -1.5 -10.5t-0.5 -7.5 q0 -27 17.5 -45.5t48.5 -18.5l7 1q-10 6 -16 17.5t-6 25.5q0 10 1 12q7 28 31.5 48t53.5 20q24 0 40 -15t16 -38q0 -2 -0.5 -6t-1.5 -9q-8 -40 -48 -68t-89 -28q-45 0 -70.5 26.5t-25.5 68.5zM145 134q-4 -31 28 -31q15 0 26 8.5t13 22.5q4 14 -3.5 23.5t-22.5 9.5t-26 -9 t-15 -24z" />
<glyph horiz-adv-x="550" d="M-17 401l35 27q60 -70 73 -173q2 -20 3 -41t1 -44q0 -59 -9 -129h351l36 171q1 5 1.5 8.5t0.5 5.5q0 19 -12.5 29.5t-32.5 10.5q-17 0 -33.5 -7.5t-30.5 -24.5l-34 -161h-42l34 162q-8 16 -23 23.5t-33 7.5q-30 0 -54.5 -17.5t-30.5 -45.5q5 1 9 1h8h12q25 0 41.5 -15.5 t16.5 -39.5q0 -11 -1 -13q-6 -29 -31 -49t-55 -20q-25 0 -41 16t-16 39q0 2 0.5 5.5t1.5 8.5l14 67q10 45 48 74q39 30 86 30q25 0 44.5 -9.5t31.5 -24.5q20 16 41 25t45 9q33 0 56.5 -19.5t23.5 -51.5q0 -2 -0.5 -7t-1.5 -12l-46 -217h-431q7 49 10.5 90t3.5 75 q1 25 -3 57.5t-12.5 65t-22.5 62.5t-32 51zM164 136q-3 -14 5 -23t22 -9q34 0 42 32q3 14 -5 23t-23 9q-33 0 -41 -32z" />
<glyph horiz-adv-x="468" d="M12 49q0 11 1 13l30 140q9 44 51 73q42 30 87 30q30 0 49 -8t33 -25q37 33 89 33q34 0 59 -20t25 -52q0 -3 -0.5 -7.5t-1.5 -10.5l-46 -215h-41l45 210q1 2 1 13q0 20 -14.5 31t-35.5 11q-41 0 -69 -33l-49 -232h-42l50 233q-8 16 -24.5 24t-36.5 8q-30 0 -56 -17.5 t-32 -45.5l-16 -75q13 4 29 4q25 0 41.5 -15.5t16.5 -39.5q0 -2 -0.5 -5.5t-1.5 -8.5q-6 -28 -30.5 -46.5t-54.5 -18.5q-24 0 -40 14t-16 38zM50 62q-3 -13 2.5 -23.5t22.5 -9.5q15 0 27 9t15 24q3 14 -5 24t-23 10q-15 1 -25.5 -10t-13.5 -24z" />
<glyph horiz-adv-x="422" d="M11 110q0 15 3 33q13 67 73 114q62 47 129 47h136q22 0 39 23q21 27 35 93h41q-13 -65 -41 -107q-35 -50 -83 -50h-136q-54 0 -97 -34q-45 -34 -55 -86q-1 -8 -1.5 -13.5t-0.5 -8.5q0 -42 27 -64t69 -22q24 0 44 4.5t38 9.5q-29 24 -29 61q0 2 0.5 6.5t1.5 10.5 q3 15 11.5 27.5t20.5 22.5t26 15.5t29 5.5q25 0 41 -16t16 -40q0 -10 -1 -12q-5 -23 -23.5 -41.5t-41.5 -24.5q5 -5 16.5 -6.5t26 -4t29.5 -8t26 -17.5l-31 -31q-19 10 -38.5 14t-38.5 4q-18 0 -58 -9q-41 -7 -76 -7q-55 0 -89 25q-38 30 -38 86zM243 130q-8 -32 27 -32 q33 0 41 32q2 14 -6 23t-22 9q-35 0 -40 -32z" />
<glyph horiz-adv-x="422" d="M11 110q0 15 3 33q6 28 20.5 54t35.5 46.5t47 35t55 20.5q-4 7 -4 19q0 3 0.5 7t1.5 9q7 30 32.5 51t55.5 21q27 0 44.5 -15.5t17.5 -41.5q0 -5 -2 -14t-7 -19q-1 -4 -7 -11l48 -1q22 0 39 23q21 27 35 93h41q-13 -65 -41 -107q-35 -50 -83 -50h-136q-54 0 -97 -34 q-45 -34 -55 -86q-1 -8 -1.5 -13.5t-0.5 -8.5q0 -42 27 -64t69 -22q24 0 44 4.5t38 9.5q-14 12 -21.5 26t-7.5 34q0 3 0.5 7.5t1.5 10.5q3 15 11.5 27.5t20.5 22.5t26 15.5t29 5.5q25 0 41 -16t16 -40q0 -10 -1 -12q-11 -51 -64 -67l4 -2t6 -2q1 0 8 -1t16.5 -3t19.5 -4.5 t17 -5.5q15 -5 26 -17l-31 -31q-19 10 -38.5 14t-38.5 4q-18 0 -58 -9q-41 -7 -76 -7q-55 0 -89 25q-38 30 -38 86zM207 334q-3 -14 6 -24t23 -10t27 10t16 24q3 16 -5 26t-23 10t-28 -10t-16 -26zM243 130q-8 -32 27 -32q33 0 41 32q2 14 -6 23t-22 9q-35 0 -40 -32z" />
<glyph horiz-adv-x="396" d="M4 386l37 25q32 -33 46.5 -69.5t14.5 -74.5q24 16 58.5 28t67.5 12q63 0 101 -33t38 -90q0 -15 -3 -31q-15 -69 -76 -114q-61 -44 -133 -44q-61 0 -97 28.5t-36 71.5q0 3 0.5 7.5t1.5 10.5q7 30 31 50t53 20q25 0 41 -16t16 -39q0 -4 -3 -20t-21 -35q-18 -18 -39 -25 q18 -15 61 -15q55 0 102 33q46 34 58 87q1 5 1.5 10.5t0.5 12.5q0 42 -29.5 66.5t-75.5 24.5q-30 0 -64 -12t-66 -38l-34 10q0 51 -12 89t-40 70zM61 114q-3 -12 3 -22.5t22 -10.5q15 0 26.5 9t14.5 24q3 14 -4.5 23.5t-22.5 9.5q-16 0 -26 -10.5t-13 -22.5z" />
<glyph horiz-adv-x="564" d="M12 49q0 11 1 13l30 141q9 44 51 73q42 30 87 30q30 0 49 -8t33 -25q37 33 90 33q34 0 58.5 -19.5t24.5 -52.5q0 -2 -0.5 -6.5t-1.5 -10.5l-38 -181q22 2 39.5 16t22.5 37l46 218q7 34 33 66q19 22 45 39l28 -24q-22 -13 -40 -36t-24 -49l-44 -210q-10 -48 -51.5 -71.5 t-104.5 -23.5l46 214q1 5 1.5 8t0.5 5q0 20 -13.5 30.5t-35.5 10.5q-18 0 -37.5 -8.5t-32.5 -24.5l-50 -233h-42l50 234q-8 15 -24.5 23.5t-35.5 8.5q-30 0 -56.5 -18t-32.5 -45l-16 -77q2 1 5 2t8 2q2 1 16 1q26 0 42 -15t16 -40q0 -2 -0.5 -5.5t-1.5 -8.5 q-6 -28 -30.5 -46.5t-54.5 -18.5q-24 0 -40 14t-16 38zM49 62q-3 -14 4.5 -23.5t21.5 -9.5q15 0 27 9t15 24t-5.5 24.5t-22.5 9.5t-25.5 -9.5t-14.5 -24.5z" />
<glyph horiz-adv-x="435" d="M12 117q0 8 1.5 18t2.5 16q13 67 81 111q67 45 155 45q59 0 106 -12q19 22 33 48q20 36 30 68l41 -3q-14 -47 -43 -92q-23 -36 -54 -69q-29 9 -57.5 14.5t-64.5 5.5q-66 0 -121 -34q-54 -32 -65 -82q-3 -12 -3 -24q0 -30 16 -53t39 -31l88 83l69 -82q16 7 31 19 q-30 12 -30 46q0 3 3 20q2 9 9 18.5t17.5 17.5t23.5 13t27 5q21 0 35.5 -14.5t14.5 -36.5q0 -10 -1 -12q-8 -36 -51 -70q-35 -29 -98 -54l-61 71l-74 -70q-46 10 -73 42t-27 78zM308 122q-5 -26 20 -26q26 0 31 26q4 25 -20 25q-27 0 -31 -25z" />
<glyph horiz-adv-x="467" d="M12 112q0 9 1.5 19.5t3.5 23.5q13 66 69 110t121 44q69 0 105 -48q13 19 35 33q25 16 49 16q31 0 48 -20q32 44 39 124h42q-6 -63 -30.5 -110t-66.5 -80q0 21 -11 33t-27 12t-32.5 -15.5t-22.5 -33.5q14 -31 21 -70.5t7 -82.5v-40q-2 -8 -2.5 -14.5t-1.5 -10.5l-43 -3 q3 34 3 68q0 89 -23 140q-30 62 -98 62q-24 0 -47 -8.5t-41.5 -24t-32 -37t-18.5 -46.5q-4 -13 -4 -33q0 -30 14 -52.5t35 -29.5q-6 9 -6 23q0 3 0.5 7t1.5 9q7 30 32 50t55 20q25 0 41 -15t16 -40q0 -2 -0.5 -6t-1.5 -9q-3 -18 -14 -33t-27.5 -25.5t-36 -16.5t-38.5 -6 q-57 0 -85.5 32t-28.5 84zM138 77q-2 -14 5.5 -23.5t21.5 -9.5q15 0 26.5 9t13.5 24q3 14 -4 24t-21 10q-15 0 -27 -10t-15 -24z" />
<glyph horiz-adv-x="528" d="M22 183q0 26 6 53q22 105 107 174q86 71 191 71q89 0 145 -54q55 -54 55 -138q0 -26 -6 -53q-23 -105 -108 -175q-86 -69 -190 -69q-90 0 -145 52q-55 54 -55 139zM62 188q0 -36 12 -66t33.5 -51.5t52.5 -33.5t69 -12q91 0 161 61q72 63 91 150q3 10 4 22t1 26 q0 71 -46 116q-45 46 -121 46q-88 0 -161 -61q-72 -61 -91 -149q-3 -11 -4 -23t-1 -25zM155 94l60 284h109q78 0 78 -58q0 -5 -0.5 -10.5t-1.5 -10.5q-8 -35 -31.5 -54.5t-56.5 -24.5l57 -126h-41l-52 126h-59l-27 -126h-35zM223 249h46q43 0 60 7q29 11 36 43q1 2 1 12 q0 21 -15.5 29t-42.5 8h-64z" />
<glyph horiz-adv-x="396" d="M23 148l8 35h332l-8 -35h-332zM128 33q3 15 16 26t29 11q14 0 23 -11t6 -26q-3 -14 -16.5 -24.5t-27.5 -10.5q-15 0 -24 10t-6 25zM185 299q3 15 16 26t28 11t24 -11t6 -26t-16 -26t-28 -11q-16 0 -25 11t-5 26z" />
<glyph d="M-208 -218l9 40h83l-25 -115h-43l16 75h-40z" />
<glyph horiz-adv-x="528" d="M22 183q0 26 6 53q22 105 107 174q86 71 191 71q89 0 145 -54q55 -54 55 -138q0 -26 -6 -53q-23 -105 -108 -175q-86 -69 -190 -69q-90 0 -145 52q-55 54 -55 139zM62 188q0 -36 12 -66t33.5 -51.5t52.5 -33.5t69 -12q91 0 161 61q72 63 91 150q3 10 4 22t1 26 q0 71 -46 116q-45 46 -121 46q-88 0 -161 -61q-72 -61 -91 -149q-3 -11 -4 -23t-1 -25zM132 196q0 8 1.5 17.5t3.5 22.5q7 33 23 60.5t38.5 48t51.5 31.5t62 11q48 0 74.5 -26t26.5 -74h-34q0 31 -18.5 50.5t-53.5 19.5q-52 0 -87.5 -33.5t-47.5 -87.5q-2 -7 -3 -17.5 t-1 -18.5q0 -40 22 -63t65 -23q35 0 62 19.5t40 50.5h34q-16 -48 -55 -74t-88 -26q-55 0 -85.5 30.5t-30.5 81.5z" />
<glyph horiz-adv-x="244" d="M90 311v160h39v-160h-39zM173 311v160h38v-160h-38z" />
<glyph horiz-adv-x="183" d="M15 0l15 70h56l-15 -70h-56zM55 117l35 208l32 146h44l-31 -147l-54 -207h-26z" />
<glyph horiz-adv-x="281" d="M33 170l10 42l105 74l-10 -44l-77 -56l50 -67l-8 -42zM139 170l9 42l105 74l-9 -44l-77 -56l49 -67l-7 -42z" />
<glyph horiz-adv-x="281" d="M10 77l10 45l76 56l-49 67l8 41l70 -92l-10 -42zM115 77l10 45l77 56l-50 67l8 41l70 -92l-10 -42z" />
<glyph horiz-adv-x="660" d="M42 0l15 70h56l-15 -70h-56zM262 0l15 70h56l-15 -70h-56zM481 0l15 70h56l-15 -70h-56z" />
<glyph d="M-125 450l21 100h43l-21 -100h-43z" />
<glyph d="M-131 490l9 40h23q41 0 41 -28q0 -8 -1 -9l-1 -3h127l-8 -40h-168l5 24q3 16 -11 16h-16z" />
<glyph d="M-298 450l8 40q6 29 29.5 45.5t56.5 16.5h5l35 -29l46 29h6q27 0 43.5 -13t16.5 -36q0 -11 -1 -13h118l-8 -40h-159l7 34q6 28 -22 28l-56 -33l-41 33q-30 0 -36 -28l41 1l-7 -35h-82z" />
<glyph d="M-187 497l7 34h50l10 47h40l-10 -47h50l-7 -34h-50l-10 -47h-40l10 47h-50z" />
<glyph d="M-99 513l5 22q6 26 23 38t40 12h47l-7 -36h-33q-25 0 -30 -17l-4 -19h-41z" />
<glyph d="M-25 450l21 100h41l-21 -100h-41z" />
<glyph d="M-108 490l9 40h23q41 0 41 -28q0 -8 -1 -9l-1 -3h127l-8 -40h-168l5 24q3 16 -11 16h-16z" />
<glyph d="M-257 450l8 40q6 29 29.5 45.5t56.5 16.5h5l40 -32l51 32h6q27 0 43.5 -13t16.5 -36q0 -11 -1 -13h66l-8 -40h-107l7 34q6 28 -22 28l-62 -37l-45 37q-30 0 -36 -28l41 1l-7 -35h-82z" />
<glyph d="M-112 497l7 34h50l10 47h40l-10 -47h48l-7 -34h-48l-10 -47h-40l10 47h-50z" />
<glyph d="M-53 450l4 22q6 26 23.5 38t38.5 12h49l-8 -36h-35q-22 0 -27 -17l-4 -19h-41z" />
<glyph horiz-adv-x="244" d="M68 311l15 70q7 32 27.5 57t50.5 33l-6 -28q-16 -5 -28.5 -24t-15.5 -38h28l-15 -70h-56zM170 311l15 70q7 31 27.5 56.5t50.5 33.5l-6 -28q-18 -6 -29.5 -24.5t-14.5 -37.5h27l-15 -70h-55z" />
<glyph horiz-adv-x="244" d="M68 311l6 28q17 6 29 24t15 38h-28l15 70h55l-15 -70q-7 -32 -25 -55q-22 -27 -52 -35zM169 311l6 28q18 6 30 24t14 38h-27l15 70h55l-15 -70q-7 -33 -26 -55q-21 -27 -52 -35z" />
<glyph d="M-137 496q5 20 22.5 34.5t37.5 14.5q17 0 28 -11t11 -28q0 -9 -1 -10q-4 -20 -21 -34t-38 -14q-19 0 -31 14t-8 34zM-109 496q-1 -6 2.5 -13.5t14.5 -7.5q20 0 25 21q2 9 -2.5 15t-13.5 6q-8 0 -16 -6t-10 -15z" />
<glyph horiz-adv-x="655" d="M0 0l69 324q74 83 176 83q57 0 94.5 -27t37.5 -76q0 -14 -3 -29l-31 -148q-1 -5 -1.5 -10.5t-0.5 -11.5q0 -35 23 -55t66 -20q49 0 84.5 26t44.5 71l58 273h43l-58 -273q-13 -63 -61 -97.5t-118 -34.5q-60 0 -93.5 25.5t-33.5 74.5q0 12 1 15q0 2 3 17l30 141q3 12 3 23 q0 36 -27 55.5t-70 19.5q-79 0 -127 -54l-58 -274h70l-8 -38h-113z" />
<glyph horiz-adv-x="370" d="M34 168q0 14 2 21t2 11q13 62 65 106q53 44 116 44q54 0 88 -34t34 -86q0 -15 -3 -30q-14 -64 -67 -107q-52 -43 -115 -43q-27 0 -49 9t-38.5 24.5t-25.5 37t-9 47.5z" />
<glyph d="M-206 450l17 80h42l-9 -40h231l-8 -40h-273z" />
<glyph d="M-298 450l7 33q7 37 37 61.5t81 24.5h184l-8 -37h-187q-27 0 -44 -12t-21 -33l38 1l64 34l47 -34h63l-8 -38h-70l-41 31l-55 -31h-87z" />
<glyph d="M-353 450l8 40h290l-8 -40h-290z" />
<glyph d="M-353 450l8 40h247l11 50h43l-19 -90h-290z" />
<glyph d="M-352 450l8 40h221l1 7q4 20 21 34t37 14t31 -14t7 -34q-5 -20 -21.5 -33.5t-36.5 -13.5h-268zM-93 499q-5 -18 14 -18q5 0 10 3q10 6 12 15q4 18 -14 18q-5 0 -12.5 -4.5t-9.5 -13.5z" />
<glyph d="M-353 450l8 40h174l11 50h43l-11 -50h30l11 50h43l-19 -90h-290z" />
<glyph d="M-81 570l15 70h43l-15 -70h-43z" />
<glyph d="M-143 606l7 36h20q37 0 37 -26q0 -7 -1 -8l112 -2l-8 -36h-148l5 21q3 15 -10 15h-14z" />
<glyph d="M-175 570l8 36q5 26 26.5 41t49.5 15h4l34 -29l44 29h7q48 0 48 -44q0 -11 -1 -12h59l-8 -36h-95l7 30q5 26 -16 26l-54 -34l-39 34q-27 0 -32 -26l36 1l-7 -31h-71z" />
<glyph d="M-113 613l7 30h45l9 43h36l-9 -43h41l-7 -30h-41l-9 -43h-36l9 43h-45z" />
<glyph d="M-115 530l4 21q5 24 22 35.5t38 11.5h46l-7 -34h-33q-23 0 -28 -17l-3 -17h-39z" />
<glyph horiz-adv-x="183" d="M89 311l15 70q7 32 26.5 57t50.5 33l-6 -28q-16 -5 -28.5 -24t-15.5 -38h28l-15 -70h-55z" />
<glyph horiz-adv-x="183" d="M88 311l6 28q17 6 29 24t15 38h-28l15 70h56l-15 -70q-7 -33 -26 -55q-21 -27 -52 -35z" />
<glyph horiz-adv-x="382" d="M32 331q86 74 188 74q53 0 86 -21l48 46l27 -25l-46 -45q33 -38 33 -100q0 -26 -6 -54q-19 -91 -97 -151q-77 -57 -179 -57l-4 210h-39l8 38h76l2 -209q68 0 121 48q54 49 69 121q4 15 4 41q0 52 -30 83.5t-84 31.5q-42 0 -77 -14.5t-72 -44.5z" />
<glyph horiz-adv-x="401" d="M7 0l52 243q4 22 27 39q50 37 52 47l4 17l-47 -30q-2 5 -6 11q-18 28 -44 48l35 30q11 -11 19.5 -20.5t11.5 -15.5l47 31h38l-17 -78q-4 -18 -25 -32q-49 -34 -54 -53l-20 -98q-1 -6 -1.5 -10.5t-0.5 -6.5q0 -18 8 -35t22.5 -29.5t33.5 -20t41 -7.5q46 0 79 24.5t44 75.5 l57 270h43l-58 -274q-13 -63 -57 -97t-107 -34q-42 0 -75.5 16.5t-47.5 42.5l-11 -54h-43z" />
<glyph horiz-adv-x="655" d="M0 0l69 324q74 83 176 83q57 0 94.5 -27t37.5 -76q0 -14 -3 -29l-14 -68q-1 -5 -1.5 -10.5t-0.5 -11.5q0 -33 23.5 -49.5t63.5 -16.5q22 0 44.5 7t40.5 20t31 30.5t17 38.5l39 185h43l-58 -273q-12 -59 -66 -96q-53 -36 -119 -36q-45 0 -79.5 14.5t-54.5 47.5l39 28 q13 -26 40 -39.5t62 -13.5q47 0 85 24q41 27 50 71q-11 -8 -22.5 -15.5t-24.5 -12.5q-41 -18 -78 -18q-55 0 -87.5 24.5t-32.5 72.5q0 13 3 28l13 62q3 12 3 23q0 36 -27 55.5t-70 19.5q-79 0 -127 -54l-58 -274h70l-8 -38h-113z" />
<glyph horiz-adv-x="683" d="M17 123q0 15 2 32.5t6 37.5q17 80 74 142q57 63 115 72l41 -60l61 57q45 0 68 -25.5t23 -67.5v-20q-2 -5 -2.5 -8.5t-1.5 -5.5l-29 -138q-1 -6 -1.5 -10.5t-0.5 -6.5q0 -18 8 -35t21.5 -29.5t31.5 -20t38 -7.5q42 0 74 25t42 70l58 275h43l-59 -279q-12 -60 -56 -93 t-101 -33q-39 0 -71 16.5t-46 42.5l-11 -54h-43l59 277q1 4 1.5 9t0.5 13q0 24 -10.5 42t-28.5 22l-81 -77l-52 76q-34 -16 -67 -58q-42 -53 -54 -111q-3 -16 -5 -30t-2 -28q0 -45 18 -71.5t58 -26.5q18 0 34.5 9t31.5 25l31 -26q-21 -23 -48.5 -35.5t-57.5 -12.5 q-57 0 -84.5 33t-27.5 93z" />
<glyph horiz-adv-x="655" d="M0 0l69 324q74 83 176 83q57 0 94.5 -27t37.5 -76q0 -14 -3 -29l-31 -150q-3 -15 -3 -28q0 -33 21 -50t56 -17q47 0 91 33t54 76l55 261h43l-85 -400h-43l11 54q-26 -26 -64 -42.5t-77 -16.5q-48 0 -77.5 23.5t-29.5 69.5v15q0 6 4 18l31 147q3 12 3 23q0 36 -27 55.5 t-70 19.5q-79 0 -127 -54l-58 -274h70l-8 -38h-113z" />
<glyph horiz-adv-x="396" d="M23 93v15q0 6 4 18l58 274h43l-57 -270q-3 -15 -3 -28q0 -36 23 -54t61 -18q50 0 96 34t55 75l55 261h43l-85 -400h-43l11 54q-26 -27 -65 -43t-82 -16q-52 0 -83 25t-31 73z" />
<glyph horiz-adv-x="498" d="M49 400h112l-9 -42h-57l12 -277l168 319h36l34 -319l150 319h43l-189 -400h-37l-36 322l-170 -322h-36z" />
<glyph horiz-adv-x="498" d="M49 400h112l-9 -42h-57l13 -276l167 318h37l33 -318l207 438h43l-245 -520h-37l-36 324l-171 -324h-36z" />
<glyph horiz-adv-x="498" d="M49 400h43l15 -319l168 319h36l34 -319l150 319h43l-189 -400h-37l-36 322l-170 -322h-36z" />
<glyph horiz-adv-x="138" d="M-2 50l12 69h43l-5 -27h65l-9 -42h-106zM45 281l14 69h43l-5 -27h65l-9 -42h-108z" />
<glyph d="M-292 450l8 40h194l11 50h43l-11 -50h30l11 50h41l-19 -90h-308z" />
<glyph horiz-adv-x="396" d="M23 148l8 35h332l-8 -35h-332z" />
<glyph horiz-adv-x="792" d="M23 148l8 35h728l-8 -35h-728z" />
<glyph horiz-adv-x="367" d="M13 119q0 14 3 31q13 64 70 110q55 46 123 46q28 0 51.5 -9.5t41 -26t27 -39.5t9.5 -50q0 -15 -3 -31q-13 -64 -70 -110q-58 -44 -122 -44q-57 0 -93.5 34.5t-36.5 88.5zM53 125q0 -39 27 -65t69 -26q51 0 91 34q43 35 53 82q2 10 2 12v11q0 40 -26.5 66.5t-69.5 26.5 q-51 0 -91 -34q-42 -34 -52 -82q-3 -12 -3 -25z" />
<glyph d="M-311 -218l9 40h74l-15 -71q4 -7 13.5 -10t17.5 -3q15 0 26.5 7.5t14.5 21.5l12 55h43l-12 -54q-6 -29 -33.5 -47.5t-60.5 -18.5q-20 0 -39 9t-28 26l9 45h-31z" />
<glyph d="M-186 -210q3 12 13 22t25 10q14 0 21 -9t4 -23t-14 -23t-25 -9q-16 0 -21.5 10t-2.5 22z" />
</font>
</defs>
</svg>
